<svg xmlns="http://www.w3.org/2000/svg" version="1.1" xmlns:xlink="http://www.w3.org/1999/xlink" xmlns:svgjs="http://svgjs.dev/svgjs" width="2000" height="2000" viewBox="0 0 2000 2000"><g transform="matrix(1,0,0,1,-0.28443113772425477,-0.28443113772459583)"><svg viewBox="0 0 334 334" data-background-color="#ffffff" preserveAspectRatio="xMidYMid meet" height="2000" width="2000" xmlns="http://www.w3.org/2000/svg" xmlns:xlink="http://www.w3.org/1999/xlink"><g id="tight-bounds" transform="matrix(1,0,0,1,0.04749999999998522,0.04750000000001364)"><svg viewBox="0 0 333.90454557049503 333.90454557049503" height="333.90454557049503" width="333.90454557049503"><g><svg></svg></g><g><svg viewBox="0 0 333.90454557049503 333.90454557049503" height="333.90454557049503" width="333.90454557049503"><g><path d="M0 166.952c0-92.205 74.747-166.952 166.952-166.952 92.205 0 166.952 74.747 166.953 166.952 0 92.205-74.747 166.952-166.953 166.953-92.205 0-166.952-74.747-166.952-166.953zM166.952 321.688c85.458 0 154.736-69.278 154.736-154.736 0-85.458-69.278-154.736-154.736-154.736-85.458 0-154.736 69.278-154.736 154.736 0 85.458 69.278 154.736 154.736 154.736z" data-fill-palette-color="tertiary" fill="#556970" stroke="transparent"></path><ellipse rx="160.27418187383762" ry="160.27418187383762" cx="166.95227278524752" cy="166.95227278524752" fill="#556970" stroke="transparent" stroke-width="0" fill-opacity="1" data-fill-palette-color="tertiary"></ellipse></g><g transform="matrix(1,0,0,1,124.13864675892545,71.17305217166896)"><svg viewBox="0 0 85.62725205264414 191.55844122715712" height="191.55844122715712" width="85.62725205264414"><g><svg viewBox="0 0 85.62725205264414 191.55844122715712" height="191.55844122715712" width="85.62725205264414"><g><svg viewBox="0 0 121.0845260597797 270.8806193439468" height="191.55844122715712" width="85.62725205264414"><g transform="matrix(1,0,0,1,0,79.32217811678967)"><svg viewBox="0 0 121.0845260597797 191.55844122715712" height="191.55844122715712" width="121.0845260597797"><g id="textblocktransform"><svg viewBox="0 0 121.0845260597797 191.55844122715712" height="191.55844122715712" width="121.0845260597797" id="textblock"><g><svg viewBox="0 0 121.0845260597797 191.55844122715712" height="191.55844122715712" width="121.0845260597797"><g transform="matrix(1,0,0,1,0,0)"><svg width="121.0845260597797" viewBox="2.25 -34.55 22.25 35.199999999999996" height="191.55844122715712" data-palette-color="#ffffff"><path d="M22.55-33.45L21.85-29.4Q20.65-29.7 19.35-29.95L19.35-29.95Q18.2-30.2 16.73-30.38 15.25-30.55 13.65-30.55L13.65-30.55Q9.95-30.55 8.35-29.43 6.75-28.3 6.75-25.95L6.75-25.95Q6.8-24.1 8.1-22.83 9.4-21.55 11.35-20.48 13.3-19.4 15.63-18.38 17.95-17.35 19.9-16.03 21.85-14.7 23.18-12.93 24.5-11.15 24.5-8.6L24.5-8.6Q24.5-5.65 23.23-3.85 21.95-2.05 20-1.05 18.05-0.05 15.73 0.3 13.4 0.65 11.3 0.65L11.3 0.65Q9.3 0.65 7.65 0.4 6 0.15 4.8-0.15L4.8-0.15Q3.4-0.5 2.25-0.95L2.25-0.95 3.25-5Q4.4-4.5 5.7-4.15L5.7-4.15Q6.85-3.85 8.28-3.6 9.7-3.35 11.3-3.35L11.3-3.35Q13.25-3.35 14.88-3.6 16.5-3.85 17.7-4.4 18.9-4.95 19.58-5.85 20.25-6.75 20.25-8.05L20.25-8.05Q20.2-10 18.98-11.23 17.75-12.45 15.73-13.58 13.7-14.7 11.38-15.75 9.05-16.8 7.1-18.15 5.15-19.5 3.83-21.35 2.5-23.2 2.5-25.95L2.5-25.95Q2.5-27.55 3.05-29.1 3.6-30.65 4.93-31.85 6.25-33.05 8.38-33.8 10.5-34.55 13.65-34.55L13.65-34.55Q15.45-34.55 17.07-34.38 18.7-34.2 19.9-34L19.9-34Q21.3-33.75 22.55-33.45L22.55-33.45Z" opacity="1" transform="matrix(1,0,0,1,0,0)" fill="#ffffff" class="wordmark-text-0" data-fill-palette-color="quaternary" id="text-0"></path></svg></g></svg></g></svg></g></svg></g><g transform="matrix(1,0,0,1,23.12714447741792,0)"><svg viewBox="0 0 74.83023710494386 34.09982754564733" height="34.09982754564733" width="74.83023710494386"><g><svg xmlns="http://www.w3.org/2000/svg" xmlns:xlink="http://www.w3.org/1999/xlink" version="1.1" x="0" y="0" viewBox="5 29.49387475885969 90 41.012625348283166" enable-background="new 0 0 100 100" xml:space="preserve" height="34.09982754564733" width="74.83023710494386" class="icon-icon-0" data-fill-palette-color="quaternary" id="icon-0"><g fill="#ffffff" data-fill-palette-color="quaternary"><path d="M23.943 30.807L5 50.001l18.942 19.192c1.728 1.751 4.53 1.751 6.258 0.002 1.729-1.75 1.73-4.587 0.002-6.338L18.193 50.695l-3.624 2.289 15.634-15.841c0.864-0.875 1.295-2.021 1.295-3.168 0-1.147-0.433-2.295-1.297-3.17C28.473 29.056 25.671 29.057 23.943 30.807z" fill="#ffffff" data-fill-palette-color="quaternary"></path><path d="M76.057 30.808L95 50.001 76.058 69.193c-1.728 1.751-4.53 1.751-6.258 0.002-1.729-1.75-1.73-4.587-0.002-6.338l12.009-12.161 3.624 2.289L69.796 37.144c-0.864-0.875-1.295-2.021-1.295-3.168 0-1.147 0.433-2.295 1.297-3.17C71.527 29.056 74.329 29.057 76.057 30.808z" fill="#ffffff" data-fill-palette-color="quaternary"></path><path d="M60.899 32.352c-0.419-1.068-1.241-1.978-2.366-2.476-2.249-0.997-4.857 0.028-5.825 2.288l-13.82 32.062c-0.484 1.13-0.467 2.355-0.048 3.422 0.419 1.068 1.241 1.978 2.366 2.476 2.249 0.997 4.857-0.028 5.825-2.288l13.82-32.062C61.335 34.644 61.318 33.419 60.899 32.352z" fill="#ffffff" data-fill-palette-color="quaternary"></path></g></svg></g></svg></g><g></g></svg></g></svg></g></svg></g></svg></g><defs></defs></svg><rect width="333.90454557049503" height="333.90454557049503" fill="none" stroke="none" visibility="hidden"></rect></g></svg></g></svg>